<svg version="1.0" xmlns="http://www.w3.org/2000/svg" viewBox="0 0 210.000000 208.000000">
    <g transform="translate(0.000000,208.000000) scale(0.100000,-0.100000)" fill="#000000" stroke="none">
        <path d="M825 1853 c-316 -67 -584 -323 -672 -644 -14 -50 -18 -101 -18 -229
        1 -153 3 -171 29 -250 121 -368 427 -606 806 -627 92 -5 213 7 228 22 2 2 -11
        66 -30 142 l-34 138 -26 -55 c-30 -64 -69 -110 -96 -110 -25 0 -64 44 -95 105
        -26 51 -70 204 -82 283 l-7 42 119 0 118 0 0 70 0 70 -127 0 -128 0 0 175 0
        175 199 0 198 0 7 -46 c3 -26 6 -78 6 -116 0 -62 2 -69 18 -64 10 4 39 2 65
        -3 l47 -8 0 118 0 119 195 0 195 0 7 -27 c9 -31 11 -231 3 -278 -5 -29 -4 -30
        57 -44 35 -8 65 -12 68 -9 3 3 10 44 17 92 19 151 -14 341 -84 481 -66 130
        -150 232 -260 315 -162 122 -337 181 -537 179 -64 0 -147 -7 -186 -16z m219
        -134 c47 -37 110 -187 136 -324 6 -33 14 -68 16 -77 5 -17 -8 -18 -180 -18
        -214 0 -196 -13 -167 121 27 121 77 243 115 284 39 41 45 42 80 14z m-280
        -108 c-19 -49 -44 -139 -56 -200 l-21 -111 -174 0 c-95 0 -173 4 -173 9 0 18
        51 99 103 161 66 80 143 140 244 191 114 58 117 56 77 -50z m585 43 c134 -69
        257 -188 320 -312 l21 -42 -180 0 c-175 0 -180 1 -180 20 0 55 -52 254 -95
        363 -11 28 16 21 114 -29z m-679 -669 l0 -175 -192 2 -192 3 -8 30 c-12 40
        -15 208 -5 268 l8 47 195 0 194 0 0 -175z m25 -357 c12 -76 54 -231 79 -295
        13 -35 23 -63 20 -63 -2 0 -31 11 -63 24 -132 53 -261 161 -343 285 -26 40
        -48 77 -48 82 0 5 78 9 174 9 l174 0 7 -42z"/>
        <path d="M1225 776 c-11 -8 -18 -25 -17 -42 1 -52 134 -579 150 -597 10 -12
        27 -17 46 -15 27 3 36 12 73 83 23 44 44 84 46 90 2 5 65 -52 139 -128 80 -80
        143 -137 155 -137 21 0 153 128 153 149 0 8 -62 77 -137 153 -75 75 -135 139
        -132 142 2 2 41 22 86 45 61 30 84 47 89 65 10 41 -10 61 -78 79 -140 37 -522
        127 -537 127 -10 0 -25 -6 -36 -14z"/>
    </g>
</svg>
